<svg width="3386" height="3891" viewBox="0 0 3386 3891" fill="none" xmlns="http://www.w3.org/2000/svg">
<path d="M199.7 3800.85L199.668 3800.88L199.645 3800.92C159.876 3870.89 76.4588 3893.55 0.5 3884.66V0.5H306.5V3731.9L303.055 3732.47C287.895 3735 276.966 3736.82 268.466 3738.9C259.248 3741.16 252.85 3743.73 246.97 3747.87C241.103 3752.01 235.78 3757.69 228.69 3766.09C226.094 3769.17 223.264 3772.61 220.082 3776.48C214.554 3783.2 207.964 3791.21 199.7 3800.85Z" fill="#AE0303" stroke="black"/>
<path d="M1433.7 3800.85L1433.67 3800.88L1433.64 3800.92C1393.88 3870.89 1310.46 3893.55 1234.5 3884.66V0.5H1540.5V3731.9L1537.05 3732.47C1521.9 3735 1510.97 3736.82 1502.47 3738.9C1493.25 3741.16 1486.85 3743.73 1480.97 3747.87C1475.1 3752.01 1469.78 3757.69 1462.69 3766.09C1460.09 3769.17 1457.26 3772.61 1454.08 3776.48C1448.55 3783.2 1441.96 3791.21 1433.7 3800.85Z" fill="#AE0303" stroke="black"/>
<path d="M2667.35 3802.8L2667.32 3802.84L2667.3 3802.88C2627.4 3872.89 2543.71 3895.56 2467.5 3886.66V0.5H2774.5V3733.82L2771.03 3734.4C2755.83 3736.92 2744.87 3738.74 2736.34 3740.82C2727.09 3743.08 2720.67 3745.66 2714.78 3749.8C2708.89 3753.94 2703.55 3759.62 2696.44 3768.03C2693.83 3771.11 2690.99 3774.55 2687.8 3778.42C2682.25 3785.15 2675.64 3793.16 2667.35 3802.8Z" fill="#AE0303" stroke="black"/>
<path d="M817.352 3800.85L817.321 3800.88L817.297 3800.92C777.398 3870.89 693.708 3893.55 617.5 3884.66V0.5H924.5V3731.9L921.032 3732.47C905.829 3735 894.867 3736.82 886.342 3738.9C877.094 3741.16 870.674 3743.73 864.776 3747.87C858.89 3752.01 853.55 3757.68 846.437 3766.09C843.833 3769.17 840.993 3772.61 837.802 3776.48C832.255 3783.2 825.643 3791.21 817.352 3800.85Z" fill="#B01414" stroke="black"/>
<path d="M2050.7 3800.85L2050.67 3800.88L2050.64 3800.92C2010.88 3870.89 1927.46 3893.55 1851.5 3884.66V0.5H2157.5V3731.9L2154.05 3732.47C2138.9 3735 2127.97 3736.82 2119.47 3738.9C2110.25 3741.16 2103.85 3743.73 2097.97 3747.87C2092.1 3752.01 2086.78 3757.69 2079.69 3766.09C2077.09 3769.17 2074.26 3772.61 2071.08 3776.48C2065.55 3783.2 2058.96 3791.21 2050.7 3800.85Z" fill="#B01414" stroke="black"/>
<path d="M3278.7 3802.8L3278.67 3802.84L3278.64 3802.88C3238.88 3872.89 3155.46 3895.56 3079.5 3886.66V0.5H3385.5V3733.82L3382.04 3734.4C3366.89 3736.92 3355.96 3738.74 3347.47 3740.82C3338.25 3743.08 3331.85 3745.66 3325.97 3749.8C3320.1 3753.94 3314.78 3759.62 3307.69 3768.03C3305.09 3771.11 3302.26 3774.55 3299.08 3778.42C3293.55 3785.14 3286.96 3793.16 3278.7 3802.8Z" fill="#B01414" stroke="black"/>
<path d="M415.344 3804.76L415.375 3804.79L415.399 3804.83C455.558 3874.88 539.795 3897.56 616.5 3888.66V0.5H307.5V3735.74L310.991 3736.32C326.294 3738.84 337.327 3740.66 345.908 3742.75C355.215 3745.01 361.676 3747.58 367.612 3751.73C373.536 3755.87 378.91 3761.55 386.07 3769.97C388.69 3773.05 391.547 3776.49 394.759 3780.36C400.342 3787.09 406.998 3795.11 415.344 3804.76Z" fill="#E61111" stroke="black"/>
<path d="M1649.34 3804.76L1649.38 3804.79L1649.4 3804.83C1689.56 3874.88 1773.79 3897.56 1850.5 3888.66V0.5H1541.5V3735.74L1544.99 3736.32C1560.29 3738.84 1571.33 3740.66 1579.91 3742.75C1589.22 3745.01 1595.68 3747.58 1601.61 3751.73C1607.54 3755.87 1612.91 3761.55 1620.07 3769.97C1622.69 3773.05 1625.55 3776.49 1628.76 3780.36C1634.34 3787.09 1641 3795.11 1649.34 3804.76Z" fill="#E61111" stroke="black"/>
<path d="M2883.34 3804.76L2883.38 3804.79L2883.4 3804.83C2923.56 3874.88 3007.79 3897.56 3084.5 3888.66V0.5H2775.5V3735.74L2778.99 3736.32C2794.29 3738.84 2805.33 3740.66 2813.91 3742.75C2823.22 3745.01 2829.68 3747.58 2835.61 3751.73C2841.54 3755.87 2846.91 3761.55 2854.07 3769.97C2856.69 3773.05 2859.55 3776.49 2862.76 3780.36C2868.34 3787.09 2875 3795.11 2883.34 3804.76Z" fill="#E61111" stroke="black"/>
<path d="M1033 3804.76L1033.03 3804.79L1033.05 3804.84C1073.08 3874.88 1157.04 3897.56 1233.5 3888.66V0.5H925.5V3735.74L928.981 3736.32C944.234 3738.84 955.23 3740.66 963.783 3742.75C973.061 3745.01 979.501 3747.58 985.418 3751.73C991.323 3755.87 996.68 3761.55 1003.82 3769.97C1006.43 3773.05 1009.28 3776.49 1012.48 3780.36C1018.05 3787.09 1024.68 3795.11 1033 3804.76Z" fill="#E61111" stroke="black"/>
<path d="M2266 3804.76L2266.03 3804.79L2266.05 3804.84C2306.08 3874.88 2390.04 3897.56 2466.5 3888.66V0.5H2158.5V3735.74L2161.98 3736.32C2177.23 3738.84 2188.23 3740.66 2196.78 3742.75C2206.06 3745.01 2212.5 3747.58 2218.42 3751.73C2224.32 3755.87 2229.68 3761.55 2236.82 3769.97C2239.43 3773.05 2242.28 3776.49 2245.48 3780.36C2251.05 3787.09 2257.68 3795.11 2266 3804.76Z" fill="#E61111" stroke="black"/>
</svg>
